# xmcd
#
# Track frame offsets: 
#        150
#        18967
#        37660
#        56767
#        70410
#        98677
#        114587
#        135965
#        152760
#        169237
#
# Disc length: 2678 seconds
#
# Revision: 0
# Processed by: cddbd v1.5.1PL2 Copyright (c) Steve Scherf et al.
# Submitted via: ExactAudioCopy v0.95b1
#
DISCID=770a740a
DTITLE=muddyboys - moonshineblues
DYEAR=2000
DGENRE=Blues
TTITLE0=Kansas City Blues
TTITLE1=Stop breaking down
TTITLE2=Bling Willie McTell
TTITLE3=New stranger blues
TTITLE4=T'Aint nobody's business
TTITLE5=Baby I wanne be your man
TTITLE6=Moonshineblues
TTITLE7=Mean old Frisco blues
TTITLE8=Buckets of rain
TTITLE9=16 tons
EXTD=
EXTT0=
EXTT1=
EXTT2=
EXTT3=
EXTT4=
EXTT5=
EXTT6=
EXTT7=
EXTT8=
EXTT9=
PLAYORDER=
